<svg xmlns="http://www.w3.org/2000/svg" viewBox="0 0 32 40" x="0px" y="0px"><title>Artboard 66</title><g data-name="Layer 10"><path d="M28,14.75A1.25116,1.25116,0,0,0,26.75,16,10.73015,10.73015,0,0,1,8.13379,23.29626l2.51074.00062a1.25,1.25,0,1,0,0-2.5l-4.706-.001A1.23,1.23,0,0,0,4.98,20.918c-.0354.02051-.05713.05517-.08984.07861a1.23345,1.23345,0,0,0-.60938.96924l-.36084,5.58789a1.2541,1.2541,0,0,0,1.17188,1.3291l.07666.002A1.25237,1.25237,0,0,0,6.415,27.71484l.15576-2.41455A13.24412,13.24412,0,0,0,29.25,16,1.25116,1.25116,0,0,0,28,14.75Z"/><path d="M4,17.25A1.25116,1.25116,0,0,0,5.25,16,10.72981,10.72981,0,0,1,23.86572,8.70374l-2.51025-.00061a1.25,1.25,0,0,0,0,2.5l4.7063.001A1.22937,1.22937,0,0,0,27.02,11.082c.0354-.02051.05713-.05517.08984-.07861a1.23345,1.23345,0,0,0,.60938-.96924l.36084-5.58789A1.25016,1.25016,0,0,0,25.585,4.28516L25.4292,6.69971A13.24412,13.24412,0,0,0,2.75,16,1.25116,1.25116,0,0,0,4,17.25Z"/></g><text x="0" y="47" fill="#000000" font-size="5px" font-weight="bold" font-family="'Helvetica Neue', Helvetica, Arial-Unicode, Arial, Sans-serif">Created by Anggara Putra</text><text x="0" y="52" fill="#000000" font-size="5px" font-weight="bold" font-family="'Helvetica Neue', Helvetica, Arial-Unicode, Arial, Sans-serif">from the Noun Project</text></svg>